<mxfile host="Electron" agent="Mozilla/5.0 (Windows NT 10.0; Win64; x64) AppleWebKit/537.36 (KHTML, like Gecko) draw.io/26.0.4 Chrome/128.0.6613.186 Electron/32.2.5 Safari/537.36" version="26.0.4">
  <diagram id="C5RBs43oDa-KdzZeNtuy" name="Page-1">
    <mxGraphModel dx="695" dy="745" grid="1" gridSize="10" guides="1" tooltips="1" connect="1" arrows="1" fold="1" page="1" pageScale="1" pageWidth="827" pageHeight="1169" math="0" shadow="0">
      <root>
        <mxCell id="WIyWlLk6GJQsqaUBKTNV-0" />
        <mxCell id="WIyWlLk6GJQsqaUBKTNV-1" parent="WIyWlLk6GJQsqaUBKTNV-0" />
        <mxCell id="fkurg06MVX5-DTSqUwXQ-19" value="" style="edgeStyle=orthogonalEdgeStyle;rounded=0;orthogonalLoop=1;jettySize=auto;html=1;" edge="1" parent="WIyWlLk6GJQsqaUBKTNV-1" source="fkurg06MVX5-DTSqUwXQ-17" target="fkurg06MVX5-DTSqUwXQ-18">
          <mxGeometry relative="1" as="geometry" />
        </mxCell>
        <mxCell id="fkurg06MVX5-DTSqUwXQ-17" value="某GameState作为root节点" style="strokeWidth=2;html=1;shape=mxgraph.flowchart.delay;whiteSpace=wrap;" vertex="1" parent="WIyWlLk6GJQsqaUBKTNV-1">
          <mxGeometry x="340" y="40" width="100" height="60" as="geometry" />
        </mxCell>
        <mxCell id="fkurg06MVX5-DTSqUwXQ-21" value="" style="edgeStyle=orthogonalEdgeStyle;rounded=0;orthogonalLoop=1;jettySize=auto;html=1;" edge="1" parent="WIyWlLk6GJQsqaUBKTNV-1" source="fkurg06MVX5-DTSqUwXQ-18" target="fkurg06MVX5-DTSqUwXQ-20">
          <mxGeometry relative="1" as="geometry" />
        </mxCell>
        <mxCell id="fkurg06MVX5-DTSqUwXQ-22" value="Yes" style="edgeLabel;html=1;align=center;verticalAlign=middle;resizable=0;points=[];" vertex="1" connectable="0" parent="fkurg06MVX5-DTSqUwXQ-21">
          <mxGeometry x="-0.0958" relative="1" as="geometry">
            <mxPoint as="offset" />
          </mxGeometry>
        </mxCell>
        <mxCell id="fkurg06MVX5-DTSqUwXQ-24" value="" style="edgeStyle=orthogonalEdgeStyle;rounded=0;orthogonalLoop=1;jettySize=auto;html=1;" edge="1" parent="WIyWlLk6GJQsqaUBKTNV-1" source="fkurg06MVX5-DTSqUwXQ-18" target="fkurg06MVX5-DTSqUwXQ-23">
          <mxGeometry relative="1" as="geometry" />
        </mxCell>
        <mxCell id="fkurg06MVX5-DTSqUwXQ-25" value="No" style="edgeLabel;html=1;align=center;verticalAlign=middle;resizable=0;points=[];" vertex="1" connectable="0" parent="fkurg06MVX5-DTSqUwXQ-24">
          <mxGeometry x="-0.0875" y="-3" relative="1" as="geometry">
            <mxPoint as="offset" />
          </mxGeometry>
        </mxCell>
        <mxCell id="fkurg06MVX5-DTSqUwXQ-18" value="&lt;font style=&quot;font-size: 10px;&quot;&gt;是否是最后一步&lt;/font&gt;" style="rhombus;whiteSpace=wrap;html=1;strokeWidth=2;" vertex="1" parent="WIyWlLk6GJQsqaUBKTNV-1">
          <mxGeometry x="350" y="170" width="80" height="80" as="geometry" />
        </mxCell>
        <mxCell id="fkurg06MVX5-DTSqUwXQ-20" value="判断输赢" style="ellipse;whiteSpace=wrap;html=1;strokeWidth=2;" vertex="1" parent="WIyWlLk6GJQsqaUBKTNV-1">
          <mxGeometry x="510" y="170" width="80" height="80" as="geometry" />
        </mxCell>
        <mxCell id="fkurg06MVX5-DTSqUwXQ-27" value="" style="edgeStyle=orthogonalEdgeStyle;rounded=0;orthogonalLoop=1;jettySize=auto;html=1;" edge="1" parent="WIyWlLk6GJQsqaUBKTNV-1" source="fkurg06MVX5-DTSqUwXQ-23" target="fkurg06MVX5-DTSqUwXQ-26">
          <mxGeometry relative="1" as="geometry" />
        </mxCell>
        <mxCell id="fkurg06MVX5-DTSqUwXQ-28" value="No" style="edgeLabel;html=1;align=center;verticalAlign=middle;resizable=0;points=[];" vertex="1" connectable="0" parent="fkurg06MVX5-DTSqUwXQ-27">
          <mxGeometry x="0.2167" relative="1" as="geometry">
            <mxPoint as="offset" />
          </mxGeometry>
        </mxCell>
        <mxCell id="fkurg06MVX5-DTSqUwXQ-23" value="&lt;font style=&quot;font-size: 11px;&quot;&gt;是否完全展开&lt;/font&gt;" style="rhombus;whiteSpace=wrap;html=1;strokeWidth=2;" vertex="1" parent="WIyWlLk6GJQsqaUBKTNV-1">
          <mxGeometry x="350" y="330" width="80" height="80" as="geometry" />
        </mxCell>
        <mxCell id="fkurg06MVX5-DTSqUwXQ-26" value="" style="ellipse;whiteSpace=wrap;html=1;strokeWidth=2;" vertex="1" parent="WIyWlLk6GJQsqaUBKTNV-1">
          <mxGeometry x="510" y="330" width="80" height="80" as="geometry" />
        </mxCell>
        <mxCell id="fkurg06MVX5-DTSqUwXQ-30" value="GameState" style="rounded=1;whiteSpace=wrap;html=1;absoluteArcSize=1;arcSize=14;strokeWidth=2;" vertex="1" parent="WIyWlLk6GJQsqaUBKTNV-1">
          <mxGeometry x="20" y="110" width="100" height="100" as="geometry" />
        </mxCell>
        <mxCell id="fkurg06MVX5-DTSqUwXQ-31" value="&lt;font style=&quot;font-size: 9px;&quot;&gt;def&lt;/font&gt;&lt;div&gt;&lt;font style=&quot;font-size: 9px;&quot;&gt;available_moves&lt;/font&gt;&lt;/div&gt;" style="rounded=0;whiteSpace=wrap;html=1;" vertex="1" parent="WIyWlLk6GJQsqaUBKTNV-1">
          <mxGeometry x="35" y="210" width="70" height="40" as="geometry" />
        </mxCell>
      </root>
    </mxGraphModel>
  </diagram>
</mxfile>
